<svg xmlns="http://www.w3.org/2000/svg" width="104" height="24" viewBox="0 0 104 24" fill="none"><path d="M12.0454 0H0C0 3.1826 1.26907 6.23484 3.52802 8.48528C5.78697 10.7357 8.85076 12 12.0454 12H24.0908C24.0908 8.8174 22.8217 5.76516 20.5628 3.51472C18.3038 1.26428 15.24 0 12.0454 0ZM12.0454 12H0C0 15.1826 1.26907 18.2348 3.52802 20.4853C5.78697 22.7357 8.85076 24 12.0454 24H24.0908C24.0908 20.8174 22.8217 17.7652 20.5628 15.5147C18.3038 13.2643 15.24 12 12.0454 12Z" fill="#145224"></path><path d="M31.7561 22.0625L39.0446 2.208H42.632L49.9205 22.0625H46.504L44.8527 17.3542H36.7954L35.1156 22.0625H31.7561ZM37.735 14.7731H43.9416L40.8098 5.98036L37.735 14.7731Z" fill="#0A2912"></path><path d="M57.5843 22.4029C56.1798 22.4029 54.9745 22.072 53.9685 21.4102C52.9815 20.7295 52.2128 19.8313 51.6624 18.7156C51.1309 17.6 50.8652 16.352 50.8652 14.9716C50.8652 13.6102 51.1309 12.3811 51.6624 11.2844C52.2128 10.1687 52.991 9.28945 53.997 8.64655C55.003 7.98473 56.1987 7.65382 57.5843 7.65382C58.5713 7.65382 59.4919 7.86182 60.346 8.27782C61.2001 8.67491 61.8929 9.26109 62.4244 10.0364V2.208H65.6701V22.0625H62.5098L62.4244 19.9353C61.9689 20.6916 61.314 21.2967 60.4599 21.7505C59.6058 22.1855 58.6472 22.4029 57.5843 22.4029ZM58.2961 19.5949C59.1502 19.5949 59.881 19.3964 60.4884 18.9993C61.0958 18.6022 61.5703 18.0633 61.9119 17.3825C62.2536 16.6829 62.4244 15.8982 62.4244 15.0284C62.4244 14.0262 62.2251 13.1847 61.8265 12.504C61.4469 11.8233 60.9344 11.3127 60.2891 10.9724C59.6627 10.632 58.9889 10.4618 58.2676 10.4618C57.4704 10.4618 56.7587 10.6604 56.1323 11.0575C55.5249 11.4356 55.0409 11.9651 54.6803 12.6458C54.3386 13.3076 54.1678 14.0924 54.1678 15C54.1678 15.8887 54.3481 16.6829 54.7088 17.3825C55.0694 18.0633 55.5534 18.6022 56.1608 18.9993C56.7871 19.3964 57.4989 19.5949 58.2961 19.5949Z" fill="#0A2912"></path><path d="M72.7138 22.0625L67.3897 7.99418H70.8062L74.6498 19.1127L78.4934 7.99418H81.8814L76.5573 22.0625H72.7138Z" fill="#0A2912"></path><path d="M85.3958 5.75345C84.8074 5.75345 84.3044 5.54545 83.8868 5.12946C83.4692 4.71346 83.2605 4.21236 83.2605 3.62618C83.2605 3.04 83.4692 2.54836 83.8868 2.15127C84.3044 1.73527 84.8074 1.52727 85.3958 1.52727C85.9842 1.52727 86.4872 1.73527 86.9047 2.15127C87.3223 2.54836 87.5311 3.04 87.5311 3.62618C87.5311 4.21236 87.3223 4.71346 86.9047 5.12946C86.4872 5.54545 85.9842 5.75345 85.3958 5.75345ZM83.7729 22.0625V7.99418H87.0186V22.0625H83.7729Z" fill="#0A2912"></path><path d="M94.6331 22.4029C93.7599 22.4029 92.9438 22.2422 92.1846 21.9207C91.4443 21.5804 90.8464 21.0887 90.3909 20.4458C89.9543 19.8029 89.7361 19.0371 89.7361 18.1484C89.7361 17.0895 90.0018 16.2291 90.5332 15.5673C91.0647 14.9055 91.786 14.4233 92.697 14.1207C93.6081 13.7993 94.6141 13.6385 95.715 13.6385H99.2453C99.2453 12.8822 99.122 12.2676 98.8752 11.7949C98.6285 11.3033 98.2868 10.944 97.8503 10.7171C97.4137 10.4713 96.9012 10.3484 96.3128 10.3484C95.5536 10.3484 94.8893 10.5185 94.3199 10.8589C93.7505 11.1993 93.3993 11.7571 93.2665 12.5324H90.0208C90.1157 11.5113 90.4573 10.6415 91.0457 9.92291C91.6531 9.18545 92.4218 8.62764 93.3519 8.24946C94.2819 7.85236 95.2784 7.65382 96.3413 7.65382C97.7079 7.65382 98.8373 7.90909 99.7294 8.41964C100.64 8.91127 101.324 9.60146 101.779 10.4902C102.254 11.3789 102.491 12.4095 102.491 13.5818V17.8647C102.51 18.3753 102.633 18.744 102.861 18.9709C103.108 19.1978 103.488 19.3207 104 19.3396V22.0625C103.203 22.0625 102.52 21.9775 101.95 21.8073C101.381 21.6371 100.906 21.3818 100.527 21.0415C100.166 20.7011 99.8717 20.2567 99.6439 19.7084C99.1884 20.4647 98.5146 21.1076 97.6225 21.6371C96.7494 22.1476 95.7529 22.4029 94.6331 22.4029ZM95.4587 19.7935C96.199 19.7935 96.8443 19.6233 97.3947 19.2829C97.9642 18.9236 98.4102 18.4509 98.7329 17.8647C99.0745 17.2596 99.2453 16.5978 99.2453 15.8793V15.7942H95.9427C95.4492 15.7942 94.9747 15.8604 94.5192 15.9927C94.0636 16.1251 93.703 16.3425 93.4373 16.6451C93.1715 16.9287 93.0387 17.3258 93.0387 17.8364C93.0387 18.5171 93.2759 19.0182 93.7505 19.3396C94.225 19.6422 94.7944 19.7935 95.4587 19.7935Z" fill="#0A2912"></path></svg>