<svg xmlns="http://www.w3.org/2000/svg" width="60" height="60" viewBox="0 0 60 60" fill="none"><g clip-path="url(#clip0_7037_12513)"><path d="M4.48633 3.33965C2.35352 3.91386 0.736328 5.55449 0.173828 7.69902C-0.0839844 8.69511 -0.0839844 23.4139 0.173828 24.41C0.736328 26.5545 2.38867 28.2068 4.5332 28.7693C5.06055 28.91 6.05664 28.9451 9.34961 28.9451H13.4863L13.4277 29.4373C13.3926 29.7185 13.334 30.3865 13.2871 30.9373C13.0527 34.16 12.0215 37.2537 10.5098 39.199C9.00977 41.1443 6.74805 42.3748 3.86523 42.7732C2.81055 42.9256 2.50586 43.1014 2.3418 43.6756C2.24805 43.9803 2.22461 46.0193 2.24805 50.1209L2.2832 56.1092L2.56445 56.4139C2.96289 56.8357 3.2793 56.8709 5.2832 56.66C11.9043 55.9685 16.8613 53.7654 20.6348 49.8396C23.5996 46.7576 25.5098 43.0076 26.7051 37.9685C27.502 34.5701 27.7598 32.0623 27.8418 26.7771C27.9121 22.0896 27.9121 22.1365 27.1504 21.7615C26.7285 21.5506 26.7051 21.5506 26.2832 21.7615C25.5684 22.1014 25.5449 22.2186 25.5449 25.5467C25.5449 35.1443 24.1855 40.9685 20.8105 45.9959C19.8613 47.4139 17.6113 49.6521 16.1699 50.6131C13.4043 52.4646 9.98242 53.6951 6.16211 54.199C5.44727 54.2928 4.80273 54.3748 4.7207 54.3748C4.60352 54.3748 4.56836 53.4842 4.56836 49.699V45.0232L5.13086 44.9412C6.47852 44.742 8.69336 43.8396 9.92383 42.9959C13.5801 40.4764 15.666 35.4139 15.7363 28.8631C15.7598 27.3162 15.7598 27.3162 15.4316 26.9881L15.1152 26.66L10.041 26.6014C5.17773 26.5428 4.95508 26.531 4.43945 26.2967C3.73633 25.9685 2.97461 25.2068 2.64648 24.5037C2.40039 23.9646 2.40039 23.9061 2.40039 16.0545C2.40039 8.20293 2.40039 8.14433 2.64648 7.60527C2.97461 6.90215 3.73633 6.14043 4.43945 5.8123C4.97852 5.56621 5.01367 5.56621 13.9434 5.56621C22.873 5.56621 22.9082 5.56621 23.4473 5.8123C24.1504 6.14043 24.9121 6.90215 25.2285 7.60527C25.4629 8.08574 25.4863 8.41386 25.5449 10.6873C25.6035 13.2303 25.6035 13.242 25.9082 13.535C26.0723 13.699 26.3887 13.8631 26.623 13.8982C26.9746 13.9568 27.1035 13.91 27.4316 13.617L27.8301 13.2654L27.8652 10.8982C27.9121 8.23808 27.8301 7.6873 27.2441 6.45683C26.5176 4.94511 25.0762 3.78496 23.3535 3.33965C22.3926 3.08183 5.42383 3.09355 4.48633 3.33965Z" fill="#EDEFF5"></path><path d="M36.5957 3.33965C34.4629 3.91386 32.8457 5.55449 32.2832 7.69902C32.0254 8.69511 32.0254 23.4139 32.2832 24.41C32.8457 26.5545 34.498 28.2068 36.6426 28.7693C37.1699 28.91 38.166 28.9451 41.459 28.9451H45.5957L45.5371 29.4373C45.502 29.7185 45.4434 30.3865 45.3965 30.9373C45.1621 34.16 44.1309 37.2537 42.6191 39.199C41.1191 41.1443 38.8574 42.3748 35.9746 42.7732C34.9199 42.9256 34.6152 43.1014 34.4512 43.6756C34.3574 43.9803 34.334 46.0193 34.3574 50.1209L34.3926 56.1092L34.6738 56.4139C35.0723 56.8357 35.3887 56.8709 37.3926 56.66C44.0137 55.9685 48.9707 53.7654 52.7441 49.8396C56.6699 45.7498 58.791 40.4998 59.7285 32.5193C59.9629 30.5389 60.1035 8.96465 59.8809 7.9334C59.4238 5.71855 57.6895 3.92558 55.4629 3.33965C54.502 3.08183 37.5332 3.09355 36.5957 3.33965ZM52.0293 10.0311V14.5545L52.4277 14.9529C52.9668 15.492 53.4355 15.492 53.9746 14.9529L54.373 14.5545V10.0193V5.48418L54.7598 5.56621C55.8613 5.80058 56.8809 6.59746 57.3496 7.60527C57.5957 8.14433 57.5957 8.20293 57.6309 18.0467C57.6543 24.3865 57.6191 28.7459 57.5371 30.1756C57.1387 36.9842 55.7207 41.824 52.9199 45.9959C51.9707 47.4139 49.7207 49.6521 48.2793 50.6131C45.5137 52.4646 42.0918 53.6951 38.2715 54.199C37.5566 54.2928 36.9121 54.3748 36.8301 54.3748C36.7129 54.3748 36.6777 53.4842 36.6777 49.699V45.0232L37.2402 44.9412C38.5879 44.742 40.8027 43.8396 42.0332 42.9959C45.6895 40.4764 47.7754 35.4139 47.8457 28.8631C47.8691 27.3162 47.8691 27.3162 47.541 26.9881L47.2246 26.66L42.1504 26.6014C37.2871 26.5428 37.0645 26.531 36.5488 26.2967C35.8457 25.9685 35.084 25.2068 34.7559 24.5037C34.5098 23.9764 34.5098 23.8475 34.4746 16.4061C34.4512 11.1561 34.4746 8.65996 34.5684 8.23808C34.8145 7.08965 35.6934 6.11699 36.8535 5.71855C37.3809 5.53105 38.1309 5.51933 44.7402 5.50761H52.0293V10.0311Z" fill="#EDEFF5"></path><path d="M52.5458 17.32C51.9364 17.8004 51.9012 18.5973 52.452 19.1129C53.0848 19.6989 54.163 19.3239 54.327 18.445C54.4559 17.7653 53.9169 17.109 53.202 17.109C52.9794 17.109 52.6747 17.2028 52.5458 17.32Z" fill="#EDEFF5"></path><path d="M26.0614 16.8512C25.452 17.3317 25.4169 18.1286 25.9677 18.6442C26.6005 19.2301 27.6786 18.8551 27.8427 17.9762C27.9716 17.2965 27.4325 16.6403 26.7177 16.6403C26.495 16.6403 26.1903 16.734 26.0614 16.8512Z" fill="#EDEFF5"></path></g><defs><clipPath id="clip0_7037_12513"><rect width="60" height="60" fill="white" transform="translate(-0.00195312)"></rect></clipPath></defs></svg>